Coordinates
version=1
nRows=16
nColumns=40
inDegrees=yes

Units are S.I. units (second, meters, Newtons, ...)
Angles are in degrees.

endheader
time	pelvis_tilt	pelvis_list	pelvis_rotation	pelvis_tx	pelvis_ty	pelvis_tz	hip_flexion_r	hip_adduction_r	hip_rotation_r	knee_angle_r	knee_angle_r_beta	ankle_angle_r	subtalar_angle_r	mtp_angle_r	hip_flexion_l	hip_adduction_l	hip_rotation_l	knee_angle_l	knee_angle_l_beta	ankle_angle_l	subtalar_angle_l	mtp_angle_l	lumbar_extension	lumbar_bending	lumbar_rotation	arm_flex_r	arm_add_r	arm_rot_r	elbow_flex_r	pro_sup_r	wrist_flex_r	wrist_dev_r	arm_flex_l	arm_add_l	arm_rot_l	elbow_flex_l	pro_sup_l	wrist_flex_l	wrist_dev_l
     38.57442857	     -6.88515801	     -3.72843787	      2.40426623	      1.03045810	      0.92987571	      0.40126032	     39.66249619	     -7.24703667	     -7.11225432	     60.53141915	     60.53141915	      5.62233969	    -18.44136847	      8.61044781	     15.11379059	     -4.68359195	     -7.94021781	     19.77407361	     19.77407361	     15.11997417	     -1.19677596	     -2.07371726	    -13.04723648	      4.22505921	      2.08642534	      1.87684533	    -17.60240601	      6.89862256	     35.74455303	     46.56842693	      0.00000000	      0.00000000	     11.54038085	    -13.91422789	    -10.04760520	     59.16591806	     47.03842379	      0.00000000	      0.00000000
     38.58635714	     -6.93150424	     -3.67389258	      2.24205542	      1.02954125	      0.92988187	      0.40198044	     40.01246843	     -7.23136186	     -7.10007057	     58.08704189	     58.08704189	      4.96857562	    -18.31182521	      6.87377266	     14.51597849	     -4.65901913	     -7.96750634	     19.41721463	     19.41721463	     15.19857723	     -1.33927215	     -2.22248040	    -13.15296051	      4.15887887	      1.20776181	      2.04448283	    -17.03795683	      4.81946856	     31.62995487	     46.80429201	      0.00000000	      0.00000000	     10.94556316	    -14.66551649	    -11.05844472	     62.86011231	     47.18989295	      0.00000000	      0.00000000
     38.59828571	     -6.97086737	     -3.65396015	      2.04231695	      1.02866994	      0.92989971	      0.40294274	     40.28258690	     -7.06567891	     -7.01205641	     55.49292608	     55.49292608	      4.80882022	    -18.03405042	      6.97281847	     13.89186722	     -4.69701022	     -8.06998370	     19.04657793	     19.04657793	     15.38396312	     -1.36701957	     -2.17730074	    -13.27474741	      4.15337468	      1.45249915	      0.61513830	    -17.51468818	      4.66645096	     30.60244645	     46.83551584	      0.00000000	      0.00000000	     11.88318129	    -14.73982265	    -11.42520590	     64.10795062	     47.24742304	      0.00000000	      0.00000000
     38.61021429	     -7.00700422	     -3.61631564	      1.87785107	      1.02785035	      0.92982094	      0.40395625	     40.38958542	     -6.91655150	     -6.96484999	     52.64914532	     52.64914532	      4.64290808	    -17.59624249	      6.84354392	     13.28354554	     -4.70879566	     -8.11137541	     18.70597771	     18.70597771	     15.54687217	     -1.43638783	     -2.11685591	    -13.34302466	      4.15746612	      1.75299757	     -0.82916196	    -17.87833354	      4.43974796	     29.53411603	     46.87375715	      0.00000000	      0.00000000	     12.69937333	    -14.81702954	    -11.78848363	     65.86481711	     47.31195909	      0.00000000	      0.00000000
     38.62214286	     -7.04971434	     -3.57279918	      1.71931365	      1.02704374	      0.92964939	      0.40514476	     40.35760743	     -6.78066911	     -7.03131599	     49.57797637	     49.57797637	      4.33708558	    -16.93476692	      6.52803578	     12.70381495	     -4.72305236	     -8.12023734	     18.40909428	     18.40909428	     15.72565387	     -1.55078554	     -2.06420651	    -13.45605993	      4.07740479	      1.95968184	     -2.17715354	    -18.17110477	      4.11046742	     28.55464479	     46.91640536	      0.00000000	      0.00000000	     13.29446207	    -14.85515087	    -12.13066915	     67.97774567	     47.37972101	      0.00000000	      0.00000000
     38.63407143	     -7.13618655	     -3.43486796	      1.64838054	      1.02631780	      0.92922338	      0.40636518	     40.12511425	     -6.76394108	     -7.19013657	     46.13397014	     46.13397014	      3.20217089	    -16.44123103	      3.60546955	     12.22082256	     -4.61864388	     -8.02917555	     18.19058953	     18.19058953	     15.86741265	     -1.80265565	     -2.02189879	    -13.54782375	      3.90235149	      1.24315425	     -2.76276564	    -17.96745826	      2.25954830	     27.37710820	     47.04730692	      0.00000000	      0.00000000	     12.55816142	    -15.50360421	    -13.14709680	     72.35897196	     47.54523872	      0.00000000	      0.00000000
     38.64600000	     -7.30572621	     -3.43235653	      1.55208937	      1.02567869	      0.92868688	      0.40782420	     39.86586539	     -6.56660285	     -7.47530977	     42.63479086	     42.63479086	      2.98309810	    -15.30512130	      3.82089900	     11.81304576	     -4.70146099	     -8.04504451	     17.95971541	     17.95971541	     16.08502414	     -1.81453353	     -2.06096885	    -13.40395265	      3.94004142	      1.39710001	     -3.94244892	    -18.21433414	      2.11437871	     26.76715423	     47.06642135	      0.00000000	      0.00000000	     13.24368748	    -15.56731708	    -13.43264126	     73.49765445	     47.59250855	      0.00000000	      0.00000000
     38.65792857	     -7.34627414	     -3.30266380	      1.46789401	      1.02526504	      0.92810936	      0.40938676	     39.32746579	     -6.51597463	     -7.91394651	     39.06570785	     39.06570785	      2.58484319	    -13.77378429	      3.40653151	     11.24319034	     -4.65585417	     -8.08314189	     17.73654325	     17.73654325	     16.31360109	     -1.85960693	     -2.10280127	    -13.50343843	      3.73725922	      1.75653145	     -5.37029518	    -18.32562889	      1.53994688	     26.34311640	     47.09531994	      0.00000000	      0.00000000	     13.66487734	    -15.41261620	    -13.82695899	     76.29361380	     47.68100176	      0.00000000	      0.00000000
     38.66985714	     -7.52317932	     -3.30957060	      1.47791283	      1.02500986	      0.92724591	      0.41111428	     38.70368437	     -6.28516438	     -8.47797301	     35.33607564	     35.33607564	      2.20766133	    -12.33016047	      3.78530590	     10.87810239	     -4.76672873	     -8.01060260	     17.59261880	     17.59261880	     16.56270916	     -1.85303347	     -2.21044739	    -13.26953075	      3.76340967	      1.61393382	     -6.46088596	    -18.44466385	      1.30123129	     26.10473254	     47.10592854	      0.00000000	      0.00000000	     13.99091909	    -15.60230654	    -14.04312095	     77.62247514	     47.72549672	      0.00000000	      0.00000000
     38.68178571	     -7.58135347	     -3.21556706	      1.49549387	      1.02512108	      0.92624764	      0.41295119	     37.83782167	     -6.19510906	     -9.32776532	     31.72654307	     31.72654307	      1.72403316	    -10.35083738	      3.46298461	     10.32479712	     -4.78386238	     -8.02395192	     17.40218824	     17.40218824	     16.85121175	     -1.78942911	     -2.44947508	    -13.30903280	      3.58690536	      1.32980472	     -7.74872573	    -18.43387471	     -0.08054623	     26.98493837	     47.11689064	      0.00000000	      0.00000000	     13.36251203	    -15.81163348	    -14.67393245	     81.56907901	     47.85922720	      0.00000000	      0.00000000
     38.69371429	     -7.83598456	     -3.04160657	      1.52840990	      1.02532250	      0.92479301	      0.41499754	     37.15207300	     -6.02730800	     -9.87714937	     28.33081987	     28.33081987	      1.29268177	     -8.97680679	      4.17781245	     10.03092428	     -4.72812885	     -8.04267354	     17.31234574	     17.31234574	     17.15675884	     -1.76305636	     -2.61488949	    -12.94138063	      3.36695661	      1.27812641	     -8.78166057	    -18.35067942	     -0.17475409	     26.74353272	     47.11863713	      0.00000000	      0.00000000	     13.78026971	    -16.00314912	    -14.86751154	     82.47823990	     47.89428572	      0.00000000	      0.00000000
     38.70564286	     -7.90555951	     -3.10734832	      1.59652212	      1.02614312	      0.92346477	      0.41722927	     36.05123143	     -5.65297508	    -10.87694940	     25.03435493	     25.03435493	      0.96236371	     -7.11196723	      4.95236129	      9.43839712	     -4.93892938	     -7.95196429	     17.10440440	     17.10440440	     17.59929254	     -1.65800085	     -2.80552575	    -12.67902289	      3.43674580	      1.42328709	     -9.91523792	    -18.30991331	     -0.35192058	     26.68456366	     47.11577885	      0.00000000	      0.00000000	     13.97321606	    -15.84675315	    -14.94042533	     84.04245810	     47.93318540	      0.00000000	      0.00000000
     38.71757143	     -7.95371730	     -3.06033665	      1.68856920	      1.02721980	      0.92192228	      0.41955488	     34.98554885	     -5.40508496	    -12.03301376	     22.25412738	     22.25412738	      0.71127249	     -5.30318379	      5.75971262	      8.83192284	     -5.05317519	     -7.93650788	     16.94752499	     16.94752499	     18.01853142	     -1.50343923	     -3.00022668	    -12.40593779	      3.33145328	      1.53671467	    -11.08954284	    -18.22872776	     -0.60570713	     26.87858701	     47.10572715	      0.00000000	      0.00000000	     13.96282725	    -15.74248310	    -14.99518635	     85.87667473	     47.97592191	      0.00000000	      0.00000000
     38.72950000	     -7.94674622	     -2.97893644	      1.81329639	      1.02858294	      0.92018507	      0.42185018	     34.06315525	     -5.29915051	    -13.42910691	     20.34311619	     20.34311619	      1.06828140	     -3.13536572	      7.45042495	      8.17834935	     -5.15121268	     -7.98713436	     16.86206954	     16.86206954	     18.59270086	     -1.15249208	     -3.19493937	    -12.31176121	      3.23090379	      1.16882930	    -12.67651623	    -18.20489180	     -2.04954182	     29.47095669	     47.02549692	      0.00000000	      0.00000000	     12.87874872	    -15.90434324	    -15.39946003	     89.63476463	     48.09971827	      0.00000000	      0.00000000
     38.74142857	     -8.09478262	     -2.97435183	      1.91136127	      1.03004951	      0.91826865	      0.42446468	     33.22785915	     -4.92843658	    -14.29083621	     18.55401881	     18.55401881	      0.82787119	     -2.16652879	      7.94548854	      7.70562690	     -5.32118128	     -7.85834030	     16.79655885	     16.79655885	     19.08799112	     -1.15592691	     -3.30370326	    -11.82356028	      3.21047527	      1.30646164	    -13.57049863	    -18.00581243	     -2.13706966	     29.45707684	     47.01355161	      0.00000000	      0.00000000	     12.93103680	    -15.71040098	    -15.38760803	     90.54760153	     48.12217808	      0.00000000	      0.00000000
     38.75335714	     -8.10920738	     -2.94316499	      2.04635543	      1.03170575	      0.91643267	      0.42700883	     32.42166453	     -4.72355849	    -15.44772295	     17.49345025	     17.49345025	      0.71783999	     -0.97621691	      7.90145528	      7.14296607	     -5.48272047	     -7.77404259	     16.86720436	     16.86720436	     19.73017801	     -1.08486919	     -3.17980536	    -11.54127954	      3.18091564	      1.39513326	    -14.63730407	    -17.81700557	     -2.54412198	     30.30745802	     46.96696182	      0.00000000	      0.00000000	     12.57443711	    -15.60798611	    -15.27001395	     92.33939037	     48.16350548	      0.00000000	      0.00000000
